# xmcd CD database file
#
# Track frame offsets:
#	150
#	18075
#	35925
#	51750
#	72225
#	89700
#	103425
#	122700
#	140625
#	156600
#	173925
#	195225
#
# Disc length: 2956 seconds
#
# Revision: 1
# Processed by: cddbd v1.5.1PL0 Copyright (c) Steve Scherf et al.
# Submitted via: freeDBTagger 0.5
#
DISCID=b40b8a0c
DTITLE=Hysteric Blue - JUNCTION
DYEAR=1900
DGENRE=rock
TTITLE0=真夏の夜のファンタジー
TTITLE1=DOLCE〜夏色恋慕〜
TTITLE2=カクテル
TTITLE3=スコール
TTITLE4=ゆうべのキス
TTITLE5=99%LATE
TTITLE6=笑おう
TTITLE7=オレンジ
TTITLE8=君のいない街
TTITLE9=はれのちくもり
TTITLE10=旅路
TTITLE11=LOVE
EXTD=
EXTT0=
EXTT1=
EXTT2=
EXTT3=
EXTT4=
EXTT5=
EXTT6=
EXTT7=
EXTT8=
EXTT9=
EXTT10=
EXTT11=
PLAYORDER=
